<svg xmlns="http://www.w3.org/2000/svg" viewBox="0 0 1200 760"><rect width="1200" height="760" fill="#0b1220"/><text x="55" y="65" fill="white" font-size="34" font-family="Arial" font-weight="700">Dieselfilter – Arbeitsschritte</text><rect x="55" y="105" width="520" height="250" rx="18" fill="#111c2e" stroke="#334155" stroke-width="2"/><circle cx="97" cy="150" r="26" fill="#f59e0b"/><text x="97" y="159" text-anchor="middle" fill="#111827" font-size="24" font-family="Arial" font-weight="700">1</text><rect x="225" y="150" width="250" height="75" rx="10" fill="#1e293b" stroke="#64748b"/><line x1="260" y1="225" x2="235" y2="295" stroke="#f59e0b" stroke-width="12" stroke-linecap="round"/><line x1="440" y1="225" x2="465" y2="295" stroke="#f59e0b" stroke-width="12" stroke-linecap="round"/><text x="80" y="265" fill="#e5e7eb" font-size="17" font-family="Arial">Arbeitsbereich reinigen und</text><text x="80" y="290" fill="#e5e7eb" font-size="17" font-family="Arial">Kraftstoffaufnahme vorbereiten.</text><rect x="625" y="105" width="520" height="250" rx="18" fill="#111c2e" stroke="#334155" stroke-width="2"/><circle cx="667" cy="150" r="26" fill="#f59e0b"/><text x="667" y="159" text-anchor="middle" fill="#111827" font-size="24" font-family="Arial" font-weight="700">2</text><rect x="795" y="150" width="250" height="75" rx="10" fill="#1e293b" stroke="#64748b"/><line x1="830" y1="225" x2="805" y2="295" stroke="#f59e0b" stroke-width="12" stroke-linecap="round"/><line x1="1010" y1="225" x2="1035" y2="295" stroke="#f59e0b" stroke-width="12" stroke-linecap="round"/><text x="650" y="265" fill="#e5e7eb" font-size="17" font-family="Arial">Leitungen eindeutig markieren und Filter</text><text x="650" y="290" fill="#e5e7eb" font-size="17" font-family="Arial">kontrolliert lösen.</text><rect x="55" y="405" width="520" height="250" rx="18" fill="#111c2e" stroke="#334155" stroke-width="2"/><circle cx="97" cy="450" r="26" fill="#f59e0b"/><text x="97" y="459" text-anchor="middle" fill="#111827" font-size="24" font-family="Arial" font-weight="700">3</text><rect x="225" y="450" width="250" height="75" rx="10" fill="#1e293b" stroke="#64748b"/><line x1="260" y1="525" x2="235" y2="595" stroke="#f59e0b" stroke-width="12" stroke-linecap="round"/><line x1="440" y1="525" x2="465" y2="595" stroke="#f59e0b" stroke-width="12" stroke-linecap="round"/><text x="80" y="565" fill="#e5e7eb" font-size="17" font-family="Arial">Dichtungen erneuern und Filter korrekt</text><text x="80" y="590" fill="#e5e7eb" font-size="17" font-family="Arial">einsetzen.</text><rect x="625" y="405" width="520" height="250" rx="18" fill="#111c2e" stroke="#334155" stroke-width="2"/><circle cx="667" cy="450" r="26" fill="#f59e0b"/><text x="667" y="459" text-anchor="middle" fill="#111827" font-size="24" font-family="Arial" font-weight="700">4</text><rect x="795" y="450" width="250" height="75" rx="10" fill="#1e293b" stroke="#64748b"/><line x1="830" y1="525" x2="805" y2="595" stroke="#f59e0b" stroke-width="12" stroke-linecap="round"/><line x1="1010" y1="525" x2="1035" y2="595" stroke="#f59e0b" stroke-width="12" stroke-linecap="round"/><text x="650" y="565" fill="#e5e7eb" font-size="17" font-family="Arial">System entlüften und Motor auf Leckage</text><text x="650" y="590" fill="#e5e7eb" font-size="17" font-family="Arial">prüfen.</text></svg>